<?xml version="1.0" standalone="no"?>
<!DOCTYPE svg PUBLIC "-//W3C//DTD SVG 20010904//EN"
 "http://www.w3.org/TR/2001/REC-SVG-20010904/DTD/svg10.dtd">
<svg version="1.0" xmlns="http://www.w3.org/2000/svg"
 width="260.000000pt" height="260.000000pt" viewBox="0 0 260.000000 260.000000"
 preserveAspectRatio="xMidYMid meet">
<metadata>
Created by potrace 1.14, written by Peter Selinger 2001-2017
</metadata>
<g transform="translate(0.000000,260.000000) scale(0.100000,-0.100000)"
fill="#000000" stroke="none">
<path d="M0 2410 l0 -190 38 6 c46 7 126 -17 130 -40 3 -12 -5 -16 -35 -16
-22 0 -43 -4 -48 -9 -6 -5 -26 -11 -45 -13 l-35 -3 -3 -1072 -2 -1073 1300 0
1300 0 0 156 c0 138 -2 155 -16 150 -9 -3 -19 -6 -24 -6 -4 0 -32 -23 -61 -51
-29 -28 -64 -55 -77 -60 -31 -12 -431 -13 -552 -1 -52 5 -122 7 -155 5 -67 -5
-175 22 -183 46 -4 12 12 13 89 8 52 -3 108 -11 124 -17 40 -15 276 -6 370 14
39 9 104 18 145 22 102 8 107 10 85 34 -10 11 -28 20 -39 20 -12 0 -28 5 -36
10 -20 12 27 32 146 61 99 24 120 32 118 45 -5 35 -128 42 -465 24 -97 -4
-264 -5 -371 -1 -192 8 -194 9 -236 37 -22 16 -41 35 -42 42 0 6 -13 12 -29
12 -15 0 -41 4 -57 9 -16 5 -64 15 -108 22 -121 20 -138 47 -54 87 51 25 268
44 268 24 0 -23 25 -12 42 18 19 33 41 38 64 15 12 -12 19 -12 34 -2 11 6 20
17 20 23 0 7 7 14 15 18 24 9 17 26 -10 26 -22 0 -25 4 -25 38 0 21 5 43 12
50 11 11 -1 19 -54 36 -13 4 -18 16 -18 40 0 32 2 35 30 34 45 -1 47 9 5 26
-65 28 -80 19 -80 -49 0 -38 -1 -40 -30 -37 -47 5 -63 26 -55 71 13 74 39 96
148 127 26 8 5 29 -49 50 -94 38 -137 48 -151 36 -7 -5 -33 -11 -58 -12 -72
-3 -80 2 -16 10 32 4 62 13 66 20 4 6 26 14 48 17 23 3 40 9 37 13 -2 4 25 10
61 13 36 4 82 12 103 18 108 35 179 67 214 96 54 45 79 29 37 -24 -22 -28 -28
-107 -9 -119 6 -3 105 -6 220 -7 183 0 213 -2 232 -17 12 -9 38 -22 57 -28 46
-14 190 -42 217 -42 11 0 23 -7 27 -15 23 -61 26 24 26 725 l0 740 -1300 0
-1300 0 0 -190z m1621 -161 c22 -12 36 -15 123 -22 18 -1 40 -7 47 -13 20 -15
176 -84 189 -84 7 0 10 -6 8 -12 -3 -8 -25 -14 -54 -15 -193 -6 -297 -24 -329
-57 -9 -9 -25 -16 -35 -16 -34 0 -120 -21 -120 -30 0 -4 26 -11 58 -16 65 -9
65 -9 110 5 30 9 34 8 42 -15 9 -23 14 -24 88 -24 47 0 83 5 90 12 9 9 17 9
34 1 13 -7 59 -13 103 -16 44 -2 71 -2 60 1 -11 2 -26 9 -32 14 -18 15 -148
38 -218 39 -33 0 -80 4 -105 8 l-45 8 35 6 c93 19 412 10 409 -11 -3 -21 5
-34 39 -66 35 -34 37 -39 37 -96 -1 -51 2 -60 17 -60 10 0 21 7 24 15 3 8 16
17 27 21 12 3 29 12 37 19 24 21 61 22 74 3 14 -23 -3 -53 -30 -54 -11 -1 -34
-2 -51 -3 -41 -1 -44 -21 -3 -21 17 0 30 -5 30 -11 0 -6 9 -8 20 -4 33 11 24
-23 -12 -46 -24 -14 -43 -18 -68 -14 -110 18 -110 18 -110 -3 0 -25 -74 -92
-125 -114 -129 -53 -229 -88 -253 -88 -15 0 -63 -12 -107 -26 -73 -24 -99 -26
-290 -31 -155 -4 -249 -1 -360 11 -242 26 -344 61 -345 117 0 14 -10 34 -21
45 -12 10 -25 28 -30 39 -7 18 -8 17 -8 -7 -1 -27 -3 -28 -58 -28 -55 0 -129
13 -139 23 -3 3 -1 13 4 24 5 10 15 32 23 48 16 32 34 35 149 24 36 -3 45 -1
48 13 2 12 -5 19 -25 23 -36 8 -62 21 -95 48 -25 21 -27 26 -20 67 l8 45 79
13 c44 8 89 19 100 25 13 8 64 11 142 9 114 -3 122 -2 133 18 13 24 39 25 98
5 27 -10 57 -13 78 -9 46 8 71 -1 54 -21 -7 -8 -21 -15 -31 -15 -11 0 -27 -9
-36 -19 -9 -11 -22 -17 -29 -14 -8 3 -14 -2 -14 -11 0 -9 5 -16 10 -16 6 0 10
-8 8 -17 -6 -33 36 -21 51 15 9 19 22 32 33 32 10 0 18 4 18 10 0 5 14 22 30
37 45 39 39 58 -22 78 -29 9 -64 24 -77 32 -31 20 -116 39 -208 49 -40 3 -73
10 -73 14 0 9 82 28 165 39 34 4 70 13 82 19 12 7 28 9 37 6 8 -3 23 3 34 14
41 41 431 65 493 31z m-671 -209 c0 -13 -220 -13 -240 0 -10 7 26 10 113 10
78 0 127 -4 127 -10z m-175 -780 c88 -11 207 -23 265 -26 110 -5 172 -20 148
-35 -7 -5 -22 -9 -34 -9 -11 0 -39 -9 -62 -20 -22 -11 -49 -20 -58 -20 -24 0
-146 -31 -159 -40 -5 -3 -45 -19 -87 -34 -43 -16 -78 -32 -78 -36 0 -9 3 -8
106 15 66 15 74 15 103 1 17 -9 38 -27 46 -40 16 -24 15 -26 -33 -76 -45 -47
-52 -51 -72 -40 -12 6 -33 9 -46 6 -14 -4 -24 -2 -24 4 0 6 -28 24 -62 39 -75
34 -366 228 -371 247 -1 4 34 9 77 11 74 2 103 14 90 35 -3 4 1 17 8 28 11 17
20 20 48 16 19 -3 107 -15 195 -26z m474 -96 c2 -2 -7 -12 -20 -23 -28 -23
-59 -26 -106 -9 l-33 12 28 18 c21 15 38 17 77 12 28 -3 52 -8 54 -10z m81
-160 c0 -23 -36 -34 -115 -34 -68 0 -77 2 -82 20 -7 26 -21 25 -33 -2 -6 -16
-9 -18 -9 -6 -1 9 -4 23 -7 32 -7 19 29 22 70 6 18 -6 45 -5 88 4 64 13 88 8
88 -20z m-185 -61 c30 -34 31 -43 6 -43 -11 0 -23 -5 -26 -10 -18 -28 -34 26
-19 64 8 21 11 20 39 -11z m-290 -63 c11 -13 14 -20 6 -20 -18 0 -51 19 -51
30 0 17 26 11 45 -10z m523 -485 c2 -2 -15 -6 -38 -10 -44 -7 -64 0 -40 15 12
7 67 3 78 -5z m464 4 c68 -15 108 -35 108 -56 0 -14 -20 -15 -206 -9 -113 4
-212 10 -220 13 -40 15 13 33 151 52 87 12 108 12 167 0z"/>
<path d="M1015 1870 c-3 -5 1 -10 10 -10 9 0 13 5 10 10 -3 6 -8 10 -10 10 -2
0 -7 -4 -10 -10z"/>
<path d="M998 1812 c-40 -3 -79 -24 -67 -37 3 -2 54 -9 113 -15 92 -9 296 -7
396 5 14 1 50 3 79 4 43 1 52 4 43 13 -8 8 -55 11 -158 9 -80 -1 -160 3 -177
8 -35 11 -154 18 -229 13z"/>
<path d="M2120 1745 c0 -8 5 -15 10 -15 6 0 10 7 10 15 0 8 -4 15 -10 15 -5 0
-10 -7 -10 -15z"/>
<path d="M758 1684 c-38 -11 -19 -26 47 -38 17 -2 134 -1 260 3 214 7 220 8
85 10 -80 1 -176 6 -215 12 -99 14 -157 19 -177 13z"/>
<path d="M1518 1653 c6 -2 18 -2 25 0 6 3 1 5 -13 5 -14 0 -19 -2 -12 -5z"/>
<path d="M1645 1640 c-38 -7 -38 -7 18 -9 32 0 57 3 57 9 0 11 -14 11 -75 0z"/>
<path d="M2557 1020 c-16 -17 -25 -35 -22 -41 10 -15 -44 -69 -68 -69 -11 0
-17 -5 -14 -12 5 -16 -47 -93 -87 -130 l-29 -27 34 -5 c19 -3 66 -10 104 -16
39 -6 82 -13 98 -16 l27 -6 0 176 c0 97 -3 176 -7 176 -5 -1 -21 -14 -36 -30z"/>
<path d="M1475 620 l0 -51 40 3 c33 2 41 7 43 25 4 25 -40 73 -67 73 -13 0
-16 -11 -16 -50z"/>
<path d="M2425 599 c-49 -4 -133 -8 -185 -9 -100 -2 -97 -6 25 -30 106 -21
169 -37 209 -54 59 -25 88 -21 109 15 9 17 17 44 17 60 0 33 1 33 -175 18z"/>
<path d="M1610 581 c0 -13 25 -20 39 -11 10 5 8 9 -4 14 -23 8 -35 8 -35 -3z"/>
</g>
</svg>
